<?xml version="1.0" encoding="UTF-8" standalone="no"?>
<svg width="500px" height="500px" viewBox="0 0 500 500" version="1.1" xmlns="http://www.w3.org/2000/svg" xmlns:xlink="http://www.w3.org/1999/xlink">
    <!-- Generator: Sketch 43.2 (39069) - http://www.bohemiancoding.com/sketch -->
    <title>Artboard Copy 2</title>
    <desc>Created with Sketch.</desc>
    <defs></defs>
    <g id="Page-1" stroke="none" stroke-width="1" fill="none" fill-rule="evenodd">
        <g id="Artboard-Copy-2">
            <circle id="Oval" fill="#FFED00" cx="250" cy="250" r="250"></circle>
            <polygon id="Combined-Shape" fill="#3C3D3C" fill-rule="nonzero" points="325.477273 256.636364 325.477273 340.5 275.159091 340.5 275.159091 292.61322 224.840909 292.61322 224.840909 340.5 174.522727 340.5 174.522727 256.636364 149.363636 256.636364 250 156 350.636364 256.636364"></polygon>
            <path d="M452.531331,236.342023 C451.988628,226.974496 447.481833,218.895299 441.384682,214.067601 C437.557445,210.962396 433.008178,209.173835 428.279582,208.734954 C427.345189,204.671759 426.269222,200.63688 425.056398,196.644473 C428.926107,193.912081 431.936929,190.10844 433.753805,185.483666 C436.674963,178.235041 436.405971,169.046842 432.290866,160.594832 C430.223875,156.512761 428.152165,152.435409 425.802025,148.504351 C423.593459,144.493067 421.026238,140.708303 418.576995,136.848033 C413.253786,129.113334 405.50493,124.252602 397.727759,123.195511 C392.862308,122.440446 388.048768,123.157758 383.744896,125.139804 C380.894526,122.086509 377.945052,119.132317 374.896477,116.281946 C376.873804,111.982794 377.591116,107.169254 376.83605,102.303803 C375.778959,94.5313508 370.918227,86.7777756 363.183529,81.4592855 C359.327977,79.0053238 355.538494,76.4381023 351.527211,74.2295367 C347.600872,71.8793965 343.518801,69.8076865 339.43673,67.7454148 C330.989439,63.6303098 321.80124,63.3613178 314.552614,66.2777569 C309.93256,68.0899133 306.138357,71.0960164 303.405965,74.9515678 C299.40412,73.7387444 295.364521,72.6627766 291.296608,71.7283834 C290.853007,67.0092263 289.064447,62.464678 285.96868,58.6468798 C281.140982,52.5497288 273.061785,48.0429337 263.694258,47.5002307 C259.140271,47.0755065 254.572127,47.1604513 250.013421,47 C245.454715,47.1651705 240.886571,47.0802257 236.337304,47.5002307 C226.969777,48.0476529 218.89058,52.5497288 214.062882,58.6468798 C210.957677,62.4741163 209.169116,67.0233838 208.734954,71.7519792 C204.671759,72.6863723 200.63688,73.7623402 196.644473,74.9751636 C193.912081,71.1054547 190.10844,68.0946324 185.483666,66.2777569 C178.235041,63.3565987 169.042123,63.6255906 160.594832,67.7406957 C156.512761,69.8076865 152.43069,71.8793965 148.504351,74.2295367 C144.493067,76.4381023 140.708303,79.0053238 136.848033,81.4592855 C129.113334,86.7824947 124.252602,94.5313508 123.195511,102.303803 C122.440446,107.173973 123.157758,111.987513 125.139804,116.291384 C122.091229,119.141755 119.137036,122.091229 116.281946,125.139804 C111.982794,123.162477 107.173973,122.440446 102.303803,123.195511 C94.5266316,124.247883 86.7777756,129.113334 81.4592855,136.848033 C79.0053238,140.703584 76.4381023,144.493067 74.2295367,148.504351 C71.8793965,152.435409 69.8076865,156.512761 67.7406957,160.594832 C63.6303098,169.046842 63.3565987,178.235041 66.2777569,185.483666 C68.0899133,190.099002 71.0912972,193.902643 74.9515678,196.630316 C73.7387444,200.627442 72.6627766,204.66704 71.7283834,208.739673 C67.0092263,209.183274 62.464678,210.971834 58.6468798,214.067601 C52.5497288,218.895299 48.0429337,226.974496 47.5002307,236.342023 C47.0755065,240.89601 47.1604513,245.459435 47,250.02286 C47.1604513,254.581565 47.0802257,259.149709 47.5002307,263.698977 C48.0429337,273.066504 52.5497288,281.145701 58.6468798,285.978118 C62.4741163,289.078604 67.0281029,290.867165 71.7566984,291.306046 C72.6910915,295.37396 73.7670593,299.408839 74.9798827,303.396527 C71.1101739,306.128919 68.0993516,309.937279 66.2824761,314.557334 C63.3565987,321.810678 63.6303098,330.994158 67.7454148,339.446168 C69.8124056,343.528239 71.8793965,347.61031 74.2295367,351.536649 C76.4381023,355.547933 79.0053238,359.332697 81.4592855,363.192967 C86.7824947,370.927666 94.5313508,375.788398 102.303803,376.845489 C107.173973,377.595835 111.987513,376.883242 116.286665,374.901196 C119.137036,377.949771 122.086509,380.908683 125.135085,383.763773 C123.153039,388.062925 122.440446,392.871746 123.195511,397.741917 C124.247883,405.514368 129.108615,413.263224 136.843314,418.586434 C140.703584,421.040395 144.488348,423.607617 148.499632,425.811463 C152.425971,428.161604 156.508042,430.233314 160.590113,432.300304 C169.042123,436.41069 178.230322,436.684401 185.478947,433.763243 C190.099002,431.951087 193.897924,428.949703 196.625596,425.089432 C200.627442,426.302256 204.662321,427.378223 208.734954,428.312617 C209.173835,433.031774 210.962396,437.576322 214.062882,441.39412 C218.89058,447.491271 226.965058,451.998066 236.337304,452.540769 C240.891291,452.965493 245.459435,452.880549 250.01814,453.041 C254.576846,452.880549 259.14499,452.960774 263.694258,452.540769 C273.061785,451.998066 281.140982,447.491271 285.96868,441.398839 C289.073885,437.566884 290.862446,433.017616 291.301327,428.289021 C295.364521,427.354628 299.399401,426.27866 303.391808,425.065836 C306.1242,428.935545 309.92784,431.951087 314.552614,433.763243 C321.80124,436.684401 330.989439,436.415409 339.441449,432.300304 C343.52352,430.233314 347.600872,428.161604 351.53193,425.816182 C355.543213,423.607617 359.327977,421.035676 363.183529,418.586434 C370.918227,413.263224 375.783678,405.514368 376.83605,397.741917 C377.591116,392.871746 376.878523,388.058206 374.891758,383.754335 C377.945052,380.903964 380.899245,377.954491 383.754335,374.905915 C388.053487,376.887961 392.867027,377.600554 397.732478,376.850208 C405.509649,375.793117 413.258505,370.932385 418.581715,363.197686 C421.035676,359.337416 423.598179,355.547933 425.806744,351.536649 C428.156884,347.61031 430.228594,343.528239 432.295585,339.446168 C436.405971,330.994158 436.674963,321.805959 433.758524,314.557334 C431.946368,309.937279 428.940264,306.143076 425.079994,303.410684 C426.297536,299.413558 427.373504,295.37396 428.307897,291.301327 C433.027055,290.862446 437.571603,289.073885 441.389401,285.973399 C447.486552,281.15042 451.993347,273.066504 452.53605,263.698977 C452.960774,259.14499 452.875829,254.576846 453.036281,250.01814 C452.87111,245.459435 452.956055,240.89601 452.531331,236.342023 Z M402.130733,221.401171 C397.949559,226.979215 395.778747,233.368954 396.151561,240.103191 C396.49134,243.392444 396.368642,246.71473 396.529093,250.02286 C396.368642,253.32627 396.49134,256.653275 396.151561,259.942528 C395.778747,266.681484 397.949559,273.066504 402.130733,278.644548 C404.94807,282.306614 408.52991,285.57699 412.8385,287.912972 C412.007929,291.523128 411.04994,295.100249 409.98341,298.644336 C405.080206,298.521638 400.294981,299.540976 396.080773,301.324817 C389.724069,304.090243 384.514119,308.479059 381.588242,314.529019 C380.08755,317.464334 378.615173,320.418527 376.906838,323.245302 C375.340078,326.152303 373.442976,328.861099 371.696888,331.664278 C367.855494,337.190411 366.708739,343.962402 367.449647,350.824056 C368.030103,355.401639 369.516638,360.04057 372.074421,364.221743 C369.535514,366.92582 366.911663,369.544953 364.207586,372.074421 C360.026413,369.516638 355.3922,368.044261 350.819337,367.454366 C343.957683,366.718177 337.185692,367.855494 331.65484,371.696888 C328.851661,373.442976 326.142864,375.335358 323.240583,376.906838 C320.413808,378.619892 317.459615,380.08755 314.51958,381.588242 C308.469621,384.518838 304.080805,389.728788 301.315379,396.085492 C299.536256,400.290261 298.512199,405.061329 298.634897,409.959814 C295.086091,411.035782 291.504251,411.984333 287.894096,412.819624 C285.553394,408.520471 282.292456,404.94807 278.635109,402.130733 C273.057066,397.949559 266.667327,395.778747 259.93309,396.151561 C256.643837,396.496059 253.32155,396.368642 250.013421,396.529093 C246.705292,396.368642 243.383005,396.496059 240.093753,396.151561 C233.359516,395.778747 226.965058,397.949559 221.391733,402.130733 C217.729667,404.94807 214.46401,408.52991 212.123309,412.8385 C208.513153,412.007929 204.936032,411.04994 201.391945,409.98341 C201.514643,405.080206 200.495305,400.294981 198.711464,396.080773 C195.946038,389.724069 191.557222,384.518838 185.507262,381.588242 C182.571946,380.08755 179.617754,378.615173 176.790979,376.906838 C173.883978,375.340078 171.175182,373.442976 168.372003,371.696888 C162.84587,367.855494 156.073879,366.708739 149.212225,367.449647 C144.634642,368.034822 139.995711,369.516638 135.814537,372.074421 C133.11046,369.540233 130.491328,366.911663 127.96186,364.212305 C130.519643,360.026413 131.996739,355.3922 132.581915,350.819337 C133.313384,343.957683 132.176067,337.185692 128.334673,331.65484 C126.588585,328.851661 124.696203,326.142864 123.124724,323.240583 C121.41167,320.413808 119.944012,317.459615 118.44332,314.524299 C115.512723,308.469621 110.302774,304.080805 103.946069,301.320098 C99.7365811,299.536256 94.9655132,298.512199 90.0670281,298.634897 C88.9910603,295.09081 88.0425097,291.504251 87.2072189,287.894096 C91.5016519,285.558113 95.078773,282.292456 97.8913907,278.635109 C102.072564,273.061785 104.243376,266.672046 103.865844,259.93309 C103.526064,256.648556 103.648762,253.32155 103.483592,250.013421 C103.648762,246.710011 103.521345,243.383005 103.865844,240.093753 C104.243376,233.354797 102.072564,226.965058 97.8913907,221.391733 C95.0740538,217.724948 91.4922136,214.459291 87.1836231,212.118589 C88.0141948,208.508434 88.9674645,204.931313 90.0387132,201.387226 C94.9419174,201.509924 99.7271428,200.485867 103.94135,198.702026 C110.298055,195.941319 115.508004,191.552503 118.433882,185.497824 C119.934574,182.562508 121.406951,179.608316 123.115286,176.781541 C124.686765,173.879259 126.579147,171.165744 128.325235,168.362564 C132.166629,162.836431 133.313384,156.064441 132.572477,149.202786 C131.987301,144.625204 130.505486,139.986272 127.952422,135.805099 C130.48189,133.101022 133.105741,130.486609 135.814537,127.952422 C139.995711,130.510205 144.629923,131.987301 149.207505,132.572477 C156.064441,133.308665 162.836431,132.166629 168.362564,128.325235 C171.165744,126.579147 173.87454,124.686765 176.781541,123.115286 C179.608316,121.406951 182.562508,119.934574 185.497824,118.433882 C191.552503,115.508004 195.941319,110.293336 198.702026,103.94135 C200.485867,99.7318619 201.509924,94.9607941 201.387226,90.0670281 C204.936032,88.9910603 208.517872,88.0377905 212.128028,87.2072189 C214.46401,91.5016519 217.729667,95.078773 221.387014,97.8913907 C226.960339,102.072564 233.354797,104.243376 240.089034,103.870563 C243.378286,103.530783 246.700573,103.653482 250.008702,103.49303 C253.312112,103.653482 256.639118,103.530783 259.92837,103.870563 C266.667327,104.243376 273.057066,102.072564 278.63039,97.8913907 C282.292456,95.0740538 285.562832,91.4922136 287.903534,87.1836231 C291.513689,88.0141948 295.09081,88.9674645 298.634897,90.0387132 C298.512199,94.9466366 299.526818,99.7271428 301.315379,103.94135 C304.076086,110.298055 308.464902,115.508004 314.51958,118.433882 C317.454896,119.939293 320.409088,121.406951 323.235864,123.115286 C326.138145,124.686765 328.851661,126.579147 331.650121,128.325235 C337.180973,132.166629 343.948244,133.308665 350.814618,132.572477 C355.3922,131.987301 360.026413,130.505486 364.212305,127.952422 C366.916382,130.486609 369.535514,133.11046 372.064983,135.814537 C369.507199,139.995711 368.030103,144.629923 367.444928,149.207505 C366.708739,156.064441 367.850775,162.84115 371.692169,168.367283 C373.438257,171.170463 375.330639,173.879259 376.902119,176.78626 C378.615173,179.608316 380.082831,182.567227 381.583522,185.502543 C384.5094,191.557222 389.724069,195.941319 396.076054,198.706745 C400.285542,200.485867 405.05661,201.509924 409.950376,201.391945 C411.026344,204.940751 411.979614,208.522592 412.810185,212.137466 C408.515752,214.478168 404.938631,217.739106 402.130733,221.401171 Z M396.887749,139.939081 C400.125091,140.56201 403.26333,142.567651 405.434143,145.682295 C407.694619,149.245259 410.068355,152.727997 412.102312,156.427816 C414.273124,160.047409 416.170225,163.808578 418.081484,167.574465 C419.770942,170.976977 419.841729,174.747584 418.808234,177.843351 C418.713851,178.093466 418.610029,178.329424 418.510927,178.565382 C417.26507,175.630066 415.953144,172.723066 414.551554,169.858537 C412.366585,165.611296 407.538887,163.874646 403.664459,166.03602 C399.898571,168.140764 398.345969,172.992057 400.318576,176.800417 C401.668255,179.565843 402.932989,182.373742 404.126936,185.214674 C403.631425,185.082538 403.145351,184.931525 402.668717,184.747478 C399.657894,183.629038 397.255843,181.462945 395.792905,178.52291 C394.127042,175.266691 392.494214,171.996315 390.601832,168.862795 C388.851024,165.64433 386.769876,162.633508 384.825583,159.533021 C382.94264,156.843102 382.352745,153.615198 382.848257,150.47224 C382.923763,149.972009 383.032304,149.471778 383.159721,148.971548 C384.754796,151.066853 386.293241,153.199912 387.784495,155.370725 C390.21958,158.905373 395.03784,160.047409 398.799008,157.74918 C402.503546,155.488704 403.537042,150.325946 400.828245,146.390169 C399.308677,144.172165 397.72304,141.987195 396.09965,139.835259 C396.368642,139.868293 396.632915,139.891889 396.887749,139.939081 Z M322.183491,81.2280468 C325.279259,80.1898322 329.054584,80.2606196 332.457097,81.9500778 C336.218265,83.8566173 339.984152,85.7631568 343.603746,87.9339691 C347.298846,89.9632067 350.786303,92.3416619 354.349267,94.597419 C357.46391,96.7682313 359.464833,99.9111899 360.087762,103.143813 C360.134953,103.398647 360.15383,103.648762 360.186864,103.898878 C357.647957,101.9829 355.061859,100.123552 352.42385,98.3397106 C348.412567,95.7488933 343.325316,96.7116014 341.083716,100.463331 C338.832678,104.215061 339.946399,109.132423 343.551835,111.454248 C346.109618,113.18146 348.610772,114.993616 351.069452,116.862402 C350.569222,116.994539 350.059553,117.107799 349.554603,117.178586 C346.411644,117.674097 343.179022,117.088922 340.489102,115.201259 C337.393335,113.256966 334.377794,111.175818 331.164048,109.425011 C328.030527,107.537348 324.760151,105.8998 321.499214,104.238657 C318.559179,102.775718 316.393086,100.368948 315.279365,97.3581259 C315.090598,96.8720527 314.939585,96.3765412 314.80273,95.8715914 C317.233096,96.8956485 319.635147,97.9763355 322.008883,99.1183715 C325.845557,101.02963 330.630783,99.5383765 332.735527,95.6922634 C334.835552,91.865027 333.10834,86.9523844 328.837503,84.8287637 C326.416575,83.6631319 323.962614,82.5635683 321.485056,81.5111962 C321.721014,81.4168131 321.952253,81.3082725 322.183491,81.2280468 Z M228.13069,67.811483 C230.277906,65.2065083 233.595474,63.5783991 237.380238,63.2952496 C241.580287,62.8941213 245.799214,62.9885044 250.008702,62.8280531 C254.21819,62.9885044 258.437117,62.8941213 262.637167,63.2952496 C266.42665,63.5736799 269.739498,65.2065083 271.886715,67.811483 C272.051885,68.0096876 272.198179,68.2126114 272.353911,68.4155351 C269.192076,68.0332834 266.025521,67.7265382 262.854248,67.509457 C258.092618,67.0564179 254.16156,70.7326413 254.104931,75.0365126 C254.029424,79.4772395 257.479128,82.8891901 261.749965,83.3091951 C264.822136,83.516838 267.894308,83.8235832 270.952322,84.2058349 C270.588946,84.5739292 270.216133,84.9231468 269.815005,85.2440495 C267.356324,87.1317124 264.260557,88.3256591 260.980742,88.080263 C257.342272,87.7168879 253.66133,87.8301476 250.008702,87.6696963 C246.356074,87.8301476 242.679851,87.7168879 239.036662,88.080263 C235.761567,88.3256591 232.66108,87.1364315 230.207119,85.2440495 C229.80599,84.9231468 229.428458,84.56921 229.065083,84.2058349 C231.679496,83.8802131 234.293909,83.6159403 236.91776,83.4130165 C241.193317,83.0118882 244.600548,79.4489245 244.501446,75.0742659 C244.402343,70.7043263 240.452409,67.1885543 235.695498,67.6227167 C233.015017,67.8256405 230.334536,68.0993516 227.663493,68.4249734 C227.819225,68.2173305 227.965519,68.0049685 228.13069,67.811483 Z M139.929643,103.139093 C140.552571,99.9064708 142.553494,96.7635121 145.672857,94.5926998 C149.231101,92.3369427 152.718558,89.9584875 156.418378,87.9292499 C160.037971,85.7584376 163.799139,83.8566173 167.560308,81.9500778 C170.96282,80.2606196 174.738146,80.1851131 177.833913,81.2280468 C178.079309,81.3129916 178.319986,81.4215322 178.555944,81.5206345 C175.620628,82.766492 172.713627,84.0784177 169.849099,85.4800074 C165.601857,87.6649771 163.865208,92.4926749 166.026582,96.3671029 C168.131326,100.128271 172.982619,101.680874 176.790979,99.7129853 C179.556405,98.3633064 182.369023,97.0985723 185.200517,95.9093447 C185.068381,96.400137 184.917368,96.8862102 184.73804,97.3628451 C183.619599,100.373667 181.453506,102.775718 178.513471,104.238657 C175.257253,105.904519 171.986877,107.537348 168.848638,109.42973 C165.634891,111.175818 162.624069,113.261685 159.523583,115.205978 C156.833663,117.093641 153.60576,117.678817 150.458082,117.183305 C149.957851,117.107799 149.457621,116.999258 148.962109,116.867122 C151.057415,115.276766 153.190474,113.733601 155.356567,112.242348 C158.891216,109.807262 160.028533,104.989003 157.739742,101.227835 C155.479265,97.5185772 150.311788,96.4945201 146.38073,99.1985972 C144.158007,100.722885 141.973038,102.303803 139.825821,103.922473 C139.858855,103.66292 139.882451,103.398647 139.929643,103.139093 Z M81.2186085,177.843351 C80.1803939,174.747584 80.2511813,170.972258 81.9406395,167.574465 C83.847179,163.813297 85.7537185,160.047409 87.9198116,156.432535 C89.9490492,152.732716 92.3275044,149.245259 94.5832615,145.682295 C96.7587929,142.562932 99.9017516,140.566729 103.134374,139.939081 C103.38449,139.896608 103.634605,139.873013 103.889439,139.844698 C101.968742,142.383604 100.109395,144.964983 98.3302723,147.602992 C95.739455,151.614276 96.7021631,156.701527 100.453893,158.947846 C104.205623,161.198884 109.122985,160.089882 111.449529,156.479727 C113.176741,153.921943 114.988897,151.42079 116.857683,148.966828 C116.98982,149.46234 117.103079,149.972009 117.173867,150.476959 C117.669378,153.619917 117.079484,156.85254 115.19654,159.54246 C113.252247,162.638227 111.16638,165.653768 109.420292,168.867514 C107.532629,172.001034 105.895081,175.27141 104.229219,178.527629 C102.76628,181.467664 100.364229,183.633757 97.3534067,184.752197 C96.8673336,184.936244 96.3671029,185.087257 95.8621531,185.224113 C96.8862102,182.793747 97.9668972,180.396415 99.1089332,178.01796 C101.020192,174.181285 99.5289382,169.39606 95.6828251,167.286596 C91.8555887,165.186572 86.9429461,166.913783 84.8193254,171.189339 C83.6536936,173.610267 82.5541299,176.064229 81.4970387,178.537067 C81.4026556,178.305828 81.2988341,178.079309 81.2186085,177.843351 Z M67.8020447,271.896153 C65.19707,269.748936 63.5689607,266.431369 63.2858113,262.646605 C62.884683,258.446555 62.9837853,254.227629 62.8138956,250.01814 C62.9790661,245.808652 62.884683,241.589726 63.2858113,237.389676 C63.5689607,233.604912 65.19707,230.287344 67.8020447,228.140128 C67.9955301,227.974957 68.2031731,227.828664 68.4060968,227.672931 C68.0238451,230.830047 67.7170999,234.001321 67.5000186,237.177314 C67.0469796,241.934224 70.723203,245.860563 75.0270743,245.926631 C79.463082,245.992699 82.8797518,242.552434 83.2997568,238.276877 C83.5121188,235.204706 83.8141449,232.132535 84.1963966,229.074521 C84.5644909,229.437896 84.9137085,229.815429 85.2346112,230.216557 C87.1222741,232.675238 88.3115017,235.771005 88.0708246,239.050819 C87.7074495,242.694009 87.8207093,246.365513 87.6555388,250.02286 C87.8207093,253.675487 87.7074495,257.351711 88.0708246,260.9949 C88.3162208,264.269995 87.1269932,267.370481 85.2346112,269.824443 C84.9137085,270.225571 84.5597717,270.603104 84.1916775,270.966479 C83.8660556,268.356785 83.6017828,265.737653 83.3988591,263.113802 C82.9977307,258.838245 79.4347671,255.431014 75.0601084,255.530116 C70.6901689,255.629218 67.1696776,259.579153 67.6085593,264.336063 C67.8162022,267.016544 68.0851941,269.697026 68.410816,272.36335 C68.2031731,272.207617 67.9955301,272.061323 67.8020447,271.896153 Z M103.129655,360.0972 C99.8970324,359.474271 96.7540738,357.473349 94.5832615,354.358705 C92.3275044,350.795741 89.9490492,347.308284 87.9198116,343.608465 C85.7489993,339.988871 83.8518982,336.227703 81.9406395,332.466535 C80.2464621,329.059303 80.1756747,325.288697 81.2186085,322.19293 C81.3035533,321.947534 81.4168131,321.711576 81.5159154,321.475618 C82.7617729,324.406215 84.0736985,327.313215 85.4705691,330.182463 C87.6555388,334.429704 92.4832366,336.166354 96.3576646,334.00498 C100.118833,331.900236 101.671436,327.048943 99.703547,323.240583 C98.3538681,320.475157 97.0938531,317.662539 95.8999063,314.831045 C96.3906987,314.963181 96.881491,315.114194 97.3581259,315.298241 C100.364229,316.411962 102.770999,318.578055 104.233938,321.51809 C105.895081,324.774309 107.532629,328.044685 109.420292,331.182924 C111.171099,334.39667 113.252247,337.407492 115.19654,340.507979 C117.079484,343.197898 117.669378,346.425802 117.169148,349.57348 C117.09836,350.07371 116.9851,350.573941 116.852964,351.069452 C115.262608,348.978866 113.719444,346.841088 112.22819,344.674994 C109.797824,341.140346 104.974846,340.003029 101.218396,342.29182 C97.5091389,344.552296 96.4803627,349.715054 99.1844397,353.650831 C100.708727,355.873554 102.289645,358.058524 103.913035,360.205741 C103.648762,360.167987 103.389209,360.144392 103.129655,360.0972 Z M177.829194,418.812953 C174.733426,419.851168 170.96282,419.7851 167.560308,418.090922 C163.79442,416.184383 160.033252,414.282562 156.413658,412.107031 C152.70912,410.077793 149.226382,407.699338 145.663418,405.443581 C142.548775,403.272769 140.543133,400.12981 139.920204,396.897187 C139.877732,396.647072 139.854136,396.396957 139.825821,396.142122 C142.364728,398.0581 144.946107,399.922167 147.584115,401.701289 C151.600118,404.296826 156.68737,403.334118 158.928969,399.582388 C161.180007,395.825939 160.066286,390.908577 156.456131,388.586752 C153.898348,386.85954 151.397194,385.052103 148.943233,383.178598 C149.443463,383.046461 149.948413,382.933201 150.458082,382.862414 C153.601041,382.366903 156.833663,382.956797 159.518864,384.839741 C162.61935,386.784034 165.630172,388.869901 168.843918,390.615989 C171.977439,392.503652 175.247815,394.145919 178.504033,395.807062 C181.444068,397.27472 183.610161,399.676771 184.728601,402.682874 C184.917368,403.168947 185.068381,403.669178 185.200517,404.169409 C182.77487,403.145351 180.372819,402.064665 177.994364,400.922628 C174.157689,399.01137 169.367745,400.502623 167.263001,404.348737 C165.167695,408.175973 166.890187,413.088616 171.165744,415.212236 C173.59139,416.377868 176.040633,417.477432 178.513471,418.534523 C178.291671,418.628906 178.065151,418.728008 177.829194,418.812953 Z M271.886715,432.229517 C269.734779,434.834492 266.421931,436.462601 262.632447,436.74575 C258.432398,437.146879 254.21819,437.047776 250.008702,437.217666 C245.799214,437.052496 241.580287,437.146879 237.380238,436.74575 C233.590754,436.462601 230.277906,434.834492 228.13069,432.229517 C227.9608,432.036032 227.819225,431.828389 227.668212,431.625465 C230.825328,432.007717 233.996602,432.314462 237.172595,432.531543 C241.929505,432.984582 245.855844,429.308359 245.917193,425.004487 C245.983261,420.56848 242.542996,417.15181 238.267439,416.731805 C235.190549,416.519443 232.123097,416.217417 229.065083,415.839884 C229.428458,415.47179 229.80599,415.122572 230.2024,414.79695 C232.66108,412.909288 235.756848,411.72006 239.036662,411.960737 C242.675132,412.324112 246.351355,412.210852 250.008702,412.371304 C253.66133,412.210852 257.337553,412.324112 260.980742,411.960737 C264.255838,411.715341 267.356324,412.904568 269.810285,414.79695 C270.211414,415.117853 270.584227,415.47179 270.952322,415.839884 C268.337908,416.165506 265.723495,416.429779 263.094925,416.632703 C258.819368,417.033831 255.412137,420.596795 255.515958,424.971453 C255.61978,429.346112 259.560276,432.861884 264.317187,432.423002 C267.002387,432.21536 269.682868,431.941648 272.349192,431.620746 C272.198179,431.823669 272.051885,432.036032 271.886715,432.229517 Z M360.087762,396.897187 C359.464833,400.134529 357.459191,403.277488 354.349267,405.4483 C350.781584,407.704057 347.298846,410.082512 343.599027,412.11175 C339.979433,414.282562 336.218265,416.179664 332.457097,418.090922 C329.049865,419.7851 325.279259,419.855887 322.183491,418.817672 C321.933376,418.728008 321.697418,418.619468 321.46146,418.520365 C324.396776,417.274508 327.303777,415.962582 330.173025,414.560993 C334.415547,412.376023 336.156916,407.548325 333.995542,403.678616 C331.890798,399.912729 327.039504,398.360126 323.231144,400.328015 C320.465718,401.682413 317.653101,402.942428 314.816887,404.136374 C314.949024,403.645582 315.100037,403.15479 315.284084,402.678155 C316.402524,399.672052 318.568617,397.270001 321.508652,395.802343 C324.76487,394.1412 328.035246,392.503652 331.168767,390.61127 C334.387232,388.865182 337.398054,386.779315 340.49854,384.835022 C343.183741,382.952078 346.416363,382.362183 349.559322,382.862414 C350.064272,382.933201 350.564503,383.041742 351.060014,383.173878 C348.964708,384.764234 346.831649,386.307399 344.665556,387.793933 C341.130907,390.229018 339.988871,395.047278 342.282382,398.808446 C344.542858,402.517704 349.705616,403.54648 353.641393,400.842403 C355.864116,399.318115 358.044367,397.737197 360.196302,396.113807 C360.15383,396.382799 360.134953,396.642353 360.087762,396.897187 Z M418.803515,322.197649 C419.841729,325.288697 419.770942,329.064023 418.081484,332.466535 C416.174944,336.232422 414.273124,339.993591 412.097593,343.613184 C410.068355,347.313003 407.6899,350.795741 405.434143,354.358705 C403.26333,357.473349 400.125091,359.47899 396.887749,360.101919 C396.632915,360.144392 396.382799,360.167987 396.132684,360.196302 C398.048662,357.657396 399.912729,355.076017 401.691851,352.438008 C404.282668,348.422005 403.324679,343.334754 399.57295,341.093154 C395.8165,338.846835 390.899139,339.955837 388.577313,343.565993 C386.850102,346.119057 385.037946,348.62021 383.169159,351.078891 C383.037023,350.57866 382.919044,350.07371 382.852976,349.56876 C382.357464,346.421083 382.947359,343.18846 384.830303,340.49854 C386.769876,337.402773 388.855744,334.387232 390.606551,331.173486 C392.494214,328.039966 394.131761,324.774309 395.797624,321.508652 C397.260563,318.573336 399.662614,316.407243 402.673436,315.288803 C403.159509,315.100037 403.65974,314.949024 404.15997,314.816887 C403.135913,317.242534 402.055226,319.644585 400.91319,322.018321 C399.001932,325.854996 400.493185,330.640221 404.339298,332.749684 C408.166535,334.84499 413.079177,333.122498 415.202798,328.846941 C416.36843,326.426014 417.467993,323.976771 418.520365,321.499214 C418.614749,321.739891 418.71857,321.961691 418.803515,322.197649 Z M436.731593,262.646605 C436.453163,266.436088 434.820334,269.748936 432.220079,271.896153 C432.021874,272.061323 431.814231,272.207617 431.616027,272.36335 C431.998278,269.206233 432.305024,266.03496 432.522105,262.863686 C432.975144,258.102057 429.29892,254.175718 424.995049,254.114369 C420.559041,254.043581 417.142372,257.488566 416.722367,261.764123 C416.510005,264.836294 416.207978,267.903746 415.830446,270.96176 C415.462352,270.598385 415.108415,270.225571 414.787512,269.824443 C412.899849,267.365762 411.710622,264.269995 411.951299,260.990181 C412.314674,257.351711 412.201414,253.675487 412.361865,250.01814 C412.201414,246.360794 412.314674,242.689289 411.951299,239.0461 C411.705903,235.766286 412.89513,232.670519 414.787512,230.211838 C415.103696,229.81071 415.462352,229.433177 415.830446,229.069802 C416.151349,231.684215 416.420341,234.303347 416.618545,236.927198 C417.019674,241.202755 420.587356,244.605267 424.962015,244.506165 C429.331954,244.407063 432.847727,240.457128 432.408845,235.700218 C432.205921,233.019736 431.93221,230.343974 431.611307,227.672931 C431.814231,227.823944 432.021874,227.970238 432.220079,228.140128 C434.820334,230.287344 436.453163,233.604912 436.731593,237.389676 C437.13744,241.589726 437.038338,245.803933 437.203509,250.013421 C437.038338,254.227629 437.13744,258.446555 436.731593,262.646605 Z" id="Shape" fill="#3C3D3C" fill-rule="nonzero"></path>
        </g>
    </g>
</svg>