<svg xmlns="http://www.w3.org/2000/svg" width="145.8" height="124.7" viewBox="0 0 145.8 124.7"><style>.st0{fill:#f6f6f3}.st1{fill:#373636}</style><path class="st0" d="M103.4 0l42.4 124.7H0V0h103.4"/><path class="st1" d="M93.9 64.1c-3.4-2.6-5 0-7.2-.2-1.8-.1-3.5-3.1-4.9-2.4-2.7 1.4 1.1 6.2 2.7 7.2 1.5.9 3.3 1.7 3.7 1.9 2.2 1 3 2.5 3.3 4.9.1.5 0 1.8-.1 2.4-1 4.2-8.3 8-12.5 5.1-2-1.4-3.8-3.1-4.4-6.2-1.1-5.5-5.1-9.5-6.4-14.9-.8-3.3-1.3-6.7-2.2-10-.9-3.4-1.8-6.8-2.5-9.9-.6-2.9-2-7.2-3-9.8-4-10.5-5.8-9.7-5.8-9.7s1.5 2.9 6.8 28.6c.2 1.1 2.2 12.4 3.6 16.1.5 1.3 1.4 4.2 2 5.5 1.7 3.7 6.2 9.3 6.5 14.3.2 2.9.5 5.3.6 7.5 0 .6.3 3.3.7 4.4 1.1 3.1 9.9 13 19.3 13v-7.5c-9.3 0-18.1-5.2-18.3-5.8-.1-.2.5-3.8 1.1-5.4 1.2-3.1 3.5-5.9 7.6-6.2 4.5-.3 7.2 1 9.6 1l-.2-23.9zM53.5 36.9c-.3 5.6-9 13.3-11.8 18.3-1.3 2.4-3 6.6-3.4 9-1.2 6.7.3 10.9 1.9 14.8 2.9 6.9-.4 9.4 1.9 8 2.8-2.3 2.4-7.6 2.2-10.9-.2-2.7-.3-5.7.1-8.9.8-6 4.4-12.4 7.5-16.9 3.6-5.4 2.3-11 1.6-13.4m1.7 15.9s.9 4.5-3 15.9c-10.3 30 9.4 32.8 15 39.9 0 0 2.2-3.1-6.7-12.8-3.3-3.6-6.2-11.4-3.6-22.7 3.6-16.2-1.7-20.3-1.7-20.3M35.8 33.2c-.5-1.8-.6-3.4-.5-4.8.5-7 6.9-9.9 8.5-10.9 0 0 2.9-2 3.2-4 0 0 2.9 7.4-3.8 11.7-3.5 2.1-5.8 4.7-7.4 8m16.1-6.8c.4.7 3 4.6-7.8 13.6s-7.5 15.4-7.5 15.4-11.6-6.5 1.8-17.7C51.7 26.6 49 24.4 49 24.4s1.9-.1 2.9 2M66 29.8c1.9.2 3.1 6.1 7.4 7.4 3.2.9 6.6.4 7.3 2.3-1.5.8-.3 3.4 1.2 2.9C83.1 39 83.7 25.8 66 29.8zm5.8 2.6c.2-.4.4-.1.9-.4.5-.5 1-1.3 1.8-1.5.6-.2 1.4-.1 2 .1.4.1.1 1-.1 1.3-.6.4-2.3-.3-2.3 1 .1 2.1 2.9-.1 4.3 0 .7 5.2-7.8 3.8-6.6-.5z"/></svg>