<svg id="Laag_1" xmlns="http://www.w3.org/2000/svg" width="243.3" height="243.3" viewBox="0 0 243.3 243.3"><style>.st0{fill:#fff}.st1{fill:#7a7a7a}.st2{opacity:.8;fill:#14ddc5;enable-background:new}.st3{fill:none}.st4{fill:#3e6f97}.st5{fill:none;stroke:#7a7a7a;stroke-width:2.7;stroke-miterlimit:10}.st6{fill:#12d6d6}.st7{stroke-linecap:round}.st7,.st8{fill:none;stroke:#7a7a7a;stroke-width:2;stroke-miterlimit:10}.st9{fill:#39b9be}.st10{fill:none;stroke:#7a7a7a;stroke-width:2.7;stroke-linecap:round;stroke-miterlimit:10}</style><g id="Layer_2"><path class="st0" d="M34.3 2.9h175.4v185H34.3zm4477.4 60.5l1.1 31.1c-14.8-2.8-24.2-2.5-41.5.3l-4.4-31.1c12.8-2.4 30.5-3.2 44.8-.3z"/><path class="st1" d="M4471.3 95.5c-.2 0-.3-.1-.5-.2s-.3-.3-.3-.5l-4.4-31.1c-.1-.4.2-.8.7-.9 7.4-1.3 16-2.1 24.2-2.1 7.7 0 14.7.6 20.9 1.8.4.1.6.4.6.8l1.1 31.1c0 .2-.1.5-.3.6-.2.2-.4.2-.7.2-7.1-1.3-12.9-1.9-18.7-1.9-6.2 0-12.7.6-22.5 2.2h-.1zm-3.5-31.3l4.2 29.6c9.4-1.5 15.8-2.1 22-2.1 5.6 0 11.3.5 18 1.8l-1.1-29.4c-5.9-1.1-12.6-1.7-20-1.7-7.8-.1-16 .6-23.1 1.8z"/><path class="st0" d="M4487.3 154.8l-15.8-26.8c14.3-4.6 22.5-9.3 36.4-20l18.7 25.3c-10.2 8.1-25.4 17.2-39.3 21.5z"/><path class="st1" d="M4487.3 155.6c-.3 0-.5-.1-.7-.4l-15.8-26.8c-.1-.2-.1-.5-.1-.7.1-.2.3-.4.5-.5 13.7-4.4 21.8-8.9 36.2-19.9.2-.1.4-.2.6-.2s.4.1.5.3l18.7 25.3c.3.3.2.8-.1 1.1-9.3 7.4-24.6 17-39.5 21.6-.1.2-.2.2-.3.2zm-14.6-27.1l14.9 25.4c14.2-4.5 28.7-13.5 37.8-20.7l-17.7-24c-13.7 10.5-21.8 14.9-35 19.3zm17.4 90.6h-.2c-13.5-3.6-33.1-11.3-47.8-22.1-.3-.2-.4-.6-.3-1l14.2-33.5c.1-.2.3-.4.5-.5s.5 0 .7.1c13.7 9.8 23.5 14.4 43.9 20.2.2.1.4.2.5.4s.1.4.1.6l-10.8 35.1c-.1.5-.4.7-.8.7zm-46.5-23c14.2 10.3 32.9 17.7 46 21.3l10.3-33.6c-19.6-5.6-29.5-10.2-42.8-19.6l-13.5 31.9z"/><path class="st0" d="M4485.8 80.3L4469 52.8c12.7-6.8 19.8-13 31.6-26.4l19.4 25.5c-8.7 10.2-21.8 22-34.2 28.4z"/><path class="st1" d="M4485.8 81.1c-.3 0-.5-.1-.7-.4l-16.9-27.5c-.1-.2-.1-.4-.1-.6.1-.2.2-.4.4-.5 12.2-6.5 19.2-12.4 31.4-26.2.2-.2.4-.3.6-.3s.5.1.6.3l19.4 25.5c.2.3.2.7 0 1-7.9 9.3-21.1 21.7-34.4 28.6 0 .1-.1.1-.3.1zm-15.7-28l16 26.2c12.6-6.7 25.1-18.4 32.8-27.3l-18.4-24.3c-11.6 13.2-18.7 19.1-30.4 25.4z"/><path class="st1" d="M4509.9 63.7s-.1.1-.2.1c.3 0 .5.1.8.1-.1-.1-.2-.2-.3-.2h-.3zm-36.3-.7c-.8 0-1.6.3-2.6.4 0 .1.1.2.1.2 1-.1 2.1-.3 3.1-.4-.2-.1-.4-.2-.6-.2zm31.7-9.8c-.2 0-.4-.1-.6-.3-.3-.3-.2-.8.1-1.1l3.3-2.8c.3-.3.8-.2 1.1.1.3.3.2.8-.1 1.1l-3.3 2.8c-.1.1-.3.2-.5.2zm1.7 1.8c-.2 0-.4-.1-.6-.3-.3-.3-.2-.8.1-1.1l3.3-2.8c.3-.3.8-.2 1.1.1.3.3.2.8-.1 1.1l-3.3 2.8c-.2.2-.4.2-.5.2zm1.6 2.2c-.2 0-.5-.1-.6-.3-.3-.3-.2-.8.1-1.1l1.7-1.4c.3-.3.8-.2 1.1.1.3.3.2.8-.1 1.1l-1.7 1.4c-.1.1-.3.2-.5.2z"/><circle class="st2" cx="4500" cy="52.8" r="3.1"/><circle class="st2" cx="4501.3" cy="34.6" r="2.1"/><path class="st3" d="M4498.4 51.8c-1.2.1-2.1 1.1-2.3 2.3l2 .4.3-2.7z"/><path class="st3" d="M4500 52.1l-.3 3.4c0 .2-.1.4-.3.6-.2.1-.4.2-.6.2l-2.2-.4c.5.7 1.3 1.2 2.2 1.2 1.4 0 2.6-1.2 2.6-2.6-.1-1.1-.6-2-1.4-2.4z"/><path class="st1" d="M4500.1 50.8c-.4-.2-.9-.3-1.4-.3h-.2c-1.8.1-3.3 1.5-3.5 3.3 0 .2-.1.3-.1.5 0 .4.1.8.2 1.1.5 1.5 1.9 2.7 3.6 2.7 2.1 0 3.8-1.7 3.8-3.8 0-1.6-1-3-2.4-3.5zm-1.4 6.1c-.9 0-1.7-.5-2.2-1.2-.3-.4-.4-.9-.4-1.4V54c.1-1.2 1.1-2.1 2.3-2.3h.3c.5 0 .9.1 1.3.3.8.4 1.3 1.3 1.3 2.3 0 1.5-1.2 2.6-2.6 2.6z"/><path class="st1" d="M4491.2 54.8l3.8.7c-.1-.4-.2-.7-.2-1.1 0-.2 0-.3.1-.5l-3.7-.7c.1.2.1.5.1.8.1.2 0 .5-.1.8zm8.3-16.6l-1 12.4h.2c.5 0 .9.1 1.4.3l1-12.5c-.2 0-.4.1-.6.1-.4-.1-.7-.2-1-.3zm3.6-2.5c0-1.4-1.2-2.6-2.6-2.6s-2.6 1.2-2.6 2.6c0 1.1.7 2 1.6 2.4l.1-.9c-.5-.3-.8-.9-.8-1.5 0-1 .8-1.8 1.8-1.8s1.8.8 1.8 1.8c0 .8-.5 1.4-1.1 1.7l-.1.9c1.1-.3 1.9-1.3 1.9-2.6z"/><path class="st1" d="M4500.5 37.5c-.4 0-.7-.1-1-.3l-.1.9c.3.1.7.2 1 .2.2 0 .4 0 .6-.1l.1-.9c-.1.2-.4.2-.6.2z"/><path class="st4" d="M317.9 272.2c-1.7 1.2-3.4 2.5-5.1 3.9h2.5c.9-.7 1.8-1.3 2.6-2v-1.9z"/><path class="st1" d="M63.5 18.4c-.8 0-1.4-.6-1.4-1.4v-.1c0-.8.6-1.4 1.4-1.4h.1c.8 0 1.4.6 1.4 1.4v.1c0 .8-.6 1.4-1.5 1.4zm15.5 0c-.8 0-1.4-.6-1.4-1.4v-.1c0-.8.6-1.4 1.4-1.4h.1c.8 0 1.4.6 1.4 1.4v.1c0 .8-.6 1.4-1.5 1.4zm-31 0c-.8 0-1.4-.6-1.4-1.4v-.1c0-.8.6-1.4 1.4-1.4h.1c.8 0 1.4.6 1.4 1.4v.1c0 .8-.7 1.4-1.5 1.4zm46.3 0c-.8 0-1.4-.6-1.4-1.4v-.1c0-.8.6-1.4 1.4-1.4h101.1c.8 0 1.4.6 1.4 1.4v.1c0 .8-.6 1.4-1.4 1.4H94.3z"/><path class="st5" d="M111.8 90.7H52.4c-1.6 0-2.8-1.3-2.8-2.8v-39c0-1.6 1.3-2.8 2.8-2.8h59.4c1.6 0 2.8 1.3 2.8 2.8v39c.1 1.6-1.2 2.8-2.8 2.8z"/><path class="st2" d="M74.2 87.3h-6.9V67c0-.1.1-.1.1-.1H74c.1 0 .1.1.1.1v20.3h.1zm14.2-.7h-6.9V59c0-.1.1-.1.1-.1h6.6c.1 0 .1.1.1.1l.1 27.6zm14.6 0h-6.9V51.5c0-.1.1-.1.1-.1h6.6c.1 0 .1.1.1.1l.1 35.1z"/><path class="st5" d="M85 90.7h-6.9V62.3c0-.1.1-.1.1-.1h6.6c.1 0 .1.1.1.1l.1 28.4zm14.6 0h-6.9V54.2c0-.1.1-.1.1-.1h6.6c.1 0 .1.1.1.1l.1 36.5zm-28.9 0h-6.9V70.5c0-.1.1-.1.1-.1h6.6c.1 0 .1.1.1.1v20.2h.1zm117.3 0h-59.4c-1.6 0-2.8-1.3-2.8-2.8v-39c0-1.6 1.3-2.8 2.8-2.8H188c1.6 0 2.8 1.3 2.8 2.8v39c0 1.6-1.2 2.8-2.8 2.8zm-76.2 55.7H52.4c-1.6 0-2.8-1.3-2.8-2.8v-39c0-1.6 1.3-2.8 2.8-2.8h59.4c1.6 0 2.8 1.3 2.8 2.8v39c.1 1.5-1.2 2.8-2.8 2.8zm76.2 0h-59.4c-1.6 0-2.8-1.3-2.8-2.8v-39c0-1.6 1.3-2.8 2.8-2.8H188c1.6 0 2.8 1.3 2.8 2.8v39c0 1.5-1.2 2.8-2.8 2.8z"/><path class="st3" d="M113.3 161.4c0-.8-.7-1.5-1.5-1.5H52.4c-.8 0-1.5.7-1.5 1.5v26.3l62.4.1v-26.4zm76.2 0c0-.8-.7-1.5-1.5-1.5h-59.4c-.8 0-1.5.7-1.5 1.5v26.4l62.4.1v-26.5z"/><path class="st3" d="M52.4 157.2h59.4c2.3 0 4.2 1.9 4.2 4.2v26.4h8.4v-26.4c0-2.3 1.9-4.2 4.2-4.2H188c2.3 0 4.2 1.9 4.2 4.2v26.5h17.4l.3-153.9-175.6-.1-.2 153.7h14.1v-26.3c0-2.2 1.9-4.1 4.2-4.1zm74.7 43.2c0 .8.7 1.5 1.5 1.5H188c.8 0 1.5-.7 1.5-1.5v-9.6l-62.4-.1v9.7zm-31 40h51.4l.1-28.1H96.2zM34.3 2.9h175.6V31H34.3zm-2.9 56.8H2.9v127.9h28.3zm19.5 140.7c0 .8.7 1.5 1.5 1.5h59.4c.8 0 1.5-.7 1.5-1.5v-9.7l-62.4-.1v9.8zm161.6-12.5l27.9.1V59.7h-27.7z"/><path class="st3" d="M192.2 200.4c0 2.3-1.9 4.2-4.2 4.2h-59.4c-2.3 0-4.2-1.9-4.2-4.2v-9.7H116v9.7c0 2.3-1.9 4.2-4.2 4.2H52.4c-2.3 0-4.2-1.9-4.2-4.2v-9.8l-45.3-.1v18.9h237.5v-18.5l-48.2-.1v9.6z"/><path class="st1" d="M50.9 161.4c0-.8.7-1.5 1.5-1.5h59.4c.8 0 1.5.7 1.5 1.5v26.4h2.7v-26.4c0-2.3-1.9-4.2-4.2-4.2H52.4c-2.3 0-4.2 1.9-4.2 4.2v26.3h2.7v-26.3zm137.1-4.2h-59.4c-2.3 0-4.2 1.9-4.2 4.2v26.4h2.7v-26.4c0-.8.7-1.5 1.5-1.5H188c.8 0 1.5.7 1.5 1.5v26.5h2.7v-26.5c0-2.3-1.9-4.2-4.2-4.2z"/><path class="st1" d="M237.9 56.8h-25.2l.1-52.8c0-1.1-.4-2-1.2-2.8-.7-.7-1.7-1.2-2.8-1.2H35.4c-2.2 0-3.9 1.8-3.9 3.9l-.1 52.8H5.3C2.4 56.7 0 59.1 0 62v145c0 2.9 2.4 5.3 5.3 5.3h88v28.1H79c-.8 0-1.4.6-1.4 1.4v.1c0 .8.6 1.4 1.4 1.4h85.4c.8 0 1.4-.6 1.4-1.4v-.1c0-.8-.6-1.4-1.4-1.4h-13.9v-28.1H238c2.9 0 5.3-2.4 5.3-5.3V62.1c0-2.9-2.4-5.3-5.4-5.3zM34.3 2.9l175.6.1v28.1L34.3 31V2.9zm0 31l175.6.1-.2 153.9h-20.1l-62.4-.1h-13.8l-62.4-.1H34.2l.1-153.8zM2.9 59.7h28.5l-.2 127.9H2.9V59.7zm144.6 180.7H96.1v-28.1h51.4v28.1zm92.9-31H2.9v-18.9l45.3.1h2.7l62.4.1h13.8l62.4.1h2.7l48.2.1v18.5zm0-21.4h-27.8l.2-128.2h27.7V188h-.1z"/><path class="st1" d="M78.9 243c-.6 0-1.1-.5-1.1-1.1 0-.7.5-1.2 1.1-1.2h14.6V212H5.3c-2.8 0-5-2.3-5-5V62.1c0-2.8 2.3-5 5-5h26.3L31.7 4c0-2 1.6-3.7 3.7-3.7l173.4.1c1 0 1.9.4 2.6 1.1.7.7 1.1 1.6 1.1 2.6l-.1 53h25.5c2.8 0 5 2.3 5 5V207c0 2.8-2.3 5-5 5h-87.8v28.7h14.2c.6 0 1.1.5 1.1 1.1 0 .7-.5 1.2-1.1 1.2H78.9zm17-2.3h52V212h-52v28.7zm-93.3-31h238v-19.1l-238-.4v19.5zm209.7-21.5h28.4V59.4h-28.2l-.2 128.8zm-178.5-.3l176.1.3.2-154.5L34 33.6l-.2 154.3zm-31.2-.1h28.9l.2-128.5h-29l-.1 128.5zM34 31.3l176.1.1V2.7l-176-.1-.1 28.7z"/><path class="st1" d="M135.7 68.7c-.3-.1-.5-.3-.5-.6 0-.4.3-.6.7-.6l5.6.2c.3 0 .6.3.6.7 0 .4-.3.6-.7.6l-5.6-.2-.1-.1z"/><ellipse transform="rotate(-78.843 150.954 65.008)" class="st6" cx="151" cy="65" rx="11.5" ry="11.5"/><path class="st1" d="M145.4 81c-7-1.4-11.6-8.2-10.2-15.3 1.4-7 8.2-11.6 15.3-10.2 7 1.4 11.6 8.2 10.2 15.3-1.5 7-8.3 11.6-15.3 10.2zm4.5-23.2c-5.8-1.1-11.4 2.6-12.5 8.4s2.6 11.4 8.4 12.5c5.8 1.1 11.4-2.6 12.5-8.4s-2.6-11.4-8.4-12.5z"/><path class="st1" d="M146.5 75.2c-3.8-.8-6.4-4.5-5.6-8.3.8-3.8 4.5-6.4 8.3-5.6 1.1.2 2.1.7 2.9 1.3l3.3-3c.3-.2.7-.2.9 0 .2.3.2.7 0 .9l-3.2 3c1.5 1.7 2.2 4 1.7 6.2-.7 3.8-4.5 6.3-8.3 5.5zm2.5-12.7c-3.1-.6-6.2 1.4-6.8 4.6-.6 3.1 1.4 6.2 4.6 6.8 3.1.6 6.2-1.4 6.8-4.6.4-2-.3-4.1-1.8-5.5-.8-.6-1.8-1.1-2.8-1.3z"/><path class="st1" d="M151 79.6c-.2 0-.4-.2-.5-.5l-1.3-4.6c-.1-.3.1-.7.4-.8.3-.1.7.1.8.5l1.3 4.6c.1.3-.1.7-.4.8h-.3zm-12.9-4.3c-.2 0-.3-.1-.4-.3-.2-.3-.1-.7.2-.9l4.3-2.9c.3-.2.7-.1.9.2.2.3.1.7-.2.9l-4.3 2.9c-.2.1-.3.1-.5.1z"/><path class="st7" d="M154.7 77.6l2.7 4.4h5"/><path class="st8" d="M180.5 85.4h-15.3c-.1 0-.1-.1-.1-.1v-6.4c0-.1.1-.1.1-.1h15.3c.1 0 .1.1.1.1v6.4l-.1.1zM178.9 69h-8.8c-.1 0-.1-.1-.1-.1v-6.4c0-.1.1-.1.1-.1h8.8c.1 0 .1.1.1.1v6.4c0 .1 0 .1-.1.1z"/><path class="st7" d="M162.2 65.7h5.1"/><ellipse transform="rotate(-56.681 87.645 129.226)" class="st6" cx="87.6" cy="129.2" rx="3.7" ry="3.7"/><ellipse transform="rotate(-56.681 100.775 111.922)" class="st6" cx="100.8" cy="111.9" rx="2.4" ry="2.4"/><ellipse transform="rotate(-56.681 77.07 122.19)" class="st6" cx="77.1" cy="122.2" rx="2.4" ry="2.4"/><ellipse transform="rotate(-56.681 62.972 136.356)" class="st6" cx="63" cy="136.4" rx="2.4" ry="2.4"/><path class="st3" d="M86.7 127.1c-1.3-.6-2.8-.3-3.7.8l1.8 1.7 1.9-2.5z"/><path class="st3" d="M89.6 128.1l-3 3.8c-.2.3-.5.4-.8.4s-.7-.1-.9-.3l-2.5-2.3c0 1.2.7 2.5 1.8 3.2 1.8 1.2 4.2.8 5.3-.9.8-1.3.8-2.8.1-3.9z"/><path class="st1" d="M89 127.2c-.3-.4-.7-.8-1.2-1.2-.1 0-.2-.1-.2-.1-1.9-1.1-4.3-.7-5.7.9-.1.2-.3.3-.4.5-.3.4-.4.8-.6 1.3-.5 1.9.2 3.9 1.8 5 2.1 1.4 4.9.8 6.3-1.3 1.2-1.6 1.1-3.6 0-5.1zm-5.4 5.2c-.9-.6-1.4-1.6-1.4-2.6 0-.6.2-1.2.5-1.7.1-.1.1-.2.2-.3.9-1.1 2.5-1.4 3.7-.8.1.1.2.1.3.2.5.3.8.7 1 1.2.5 1 .5 2.2-.1 3.1-.8 1.5-2.7 1.9-4.2.9z"/><path class="st3" d="M75.6 125.1c.5 0 1-.1 1.4-.3l-.5-.5-.9.8z"/><path class="st1" d="M77.7 125.4l3.3 3.2c.1-.4.3-.9.6-1.3.1-.2.3-.3.4-.5l-3.2-3.1c-.1.3-.2.6-.4.9-.2.4-.5.6-.7.8z"/><path class="st1" d="M77.7 125.4l-.7-.7c-.4.3-.9.4-1.4.3l-.9.8c1 .4 2.1.2 3-.4zm-3.7-3.6c.6-1 2-1.2 2.9-.6.6.4 1 1.1.9 1.8l.9.8c.4-1.3-.1-2.7-1.3-3.4-1.4-.9-3.4-.5-4.3.9-.7 1.1-.7 2.4 0 3.4l.7-.7c-.2-.7-.2-1.5.2-2.2z"/><path class="st1" d="M74.6 124.7c-.3-.2-.5-.4-.7-.7l-.7.7c.2.3.5.6.9.9.2.1.4.2.7.3l.9-.8c-.4-.1-.8-.2-1.1-.4zm2.9-.6l-.6.6.7.7c.3-.2.5-.4.7-.7s.3-.6.4-.9l-.9-.8c.1.4 0 .8-.3 1.1zm19.2-9.8l-9.1 11.6c.1 0 .2.1.2.1.5.3.9.7 1.2 1.2l9.1-11.7-.6-.3c-.3-.3-.6-.6-.8-.9z"/><path class="st1" d="M101.8 114.3c.9-1.4.5-3.4-.9-4.3-1.4-.9-3.4-.5-4.3.9-.7 1.1-.7 2.4 0 3.4l.7-.8c-.3-.6-.3-1.4.2-2 .6-1 2-1.2 2.9-.6 1 .6 1.2 2 .6 2.9-.5.7-1.4 1.1-2.2.9l-.6.8c1.3.5 2.8 0 3.6-1.2z"/><path class="st1" d="M98.1 114.3c-.3-.2-.6-.5-.8-.9l-.7.8c.2.3.5.6.9.9l.6.3.6-.8c-.1 0-.4-.1-.6-.3z"/><path class="st3" d="M63.6 136.4l-1.4 1.3c-.3.3-.8.3-1.2.1l-.2-.1c-.4-.4-.3-1 0-1.3l1.4-1.3c-.9-.3-1.9 0-2.5.8-.6 1-.4 2.3.6 2.9 1 .6 2.3.4 2.9-.6.5-.6.5-1.2.4-1.8z"/><path class="st1" d="M64.3 135.7l10.4-9.8c-.2-.1-.4-.2-.7-.3-.4-.2-.6-.5-.9-.9l-10.2 9.6c.1 0 .2.1.2.1.7.3 1 .8 1.2 1.3z"/><path class="st1" d="M64.3 135.7c-.2-.5-.6-.9-1.1-1.3-.1 0-.1-.1-.2-.1-1.4-.8-3.2-.4-4.1 1s-.5 3.4.9 4.3c1.4.9 3.4.5 4.3-.9.7-.9.7-2.1.2-3zm-3.9 3.1c-1-.6-1.2-2-.6-2.9.5-.8 1.6-1.1 2.5-.8.2.1.3.1.4.2.4.3.7.7.9 1.2.2.6.1 1.2-.2 1.8-.7.9-2 1.1-3 .5z"/><path class="st9" d="M158.9 129.6h-14.2c-.8 0-1.4-.6-1.4-1.4v-18.5c0-.8.6-1.4 1.4-1.4h14.2c.8 0 1.4.6 1.4 1.4v18.5c0 .8-.6 1.4-1.4 1.4z"/><path class="st10" d="M165 115.6h12.8m-12.8 8.2h12.8m-12.8 8.1h12.8"/><path class="st5" d="M155 134.7h-14.2c-.8 0-1.4-.6-1.4-1.4v-18.5c0-.8.6-1.4 1.4-1.4H155c.8 0 1.4.6 1.4 1.4v18.5c0 .7-.6 1.4-1.4 1.4z"/><path class="st6" d="M93 166.5l-6.4 12.2 13.2 1.1s-.4-7.8-6.8-13.3z"/><path class="st1" d="M82 197.2c-8.8 0-16-7.2-16-16s7.2-16 16-16 16 7.2 16 16c0 8.9-7.1 16-16 16zm0-29.1c-7.2 0-13.1 5.9-13.1 13.1 0 7.2 5.9 13.1 13.1 13.1s13.1-5.9 13.1-13.1-5.8-13.1-13.1-13.1z"/><path class="st1" d="M96.4 185h-.1l-15.4-1.3c-.5 0-.9-.3-1.2-.7-.2-.4-.2-.9 0-1.4l7.4-14.1c.4-.7 1.2-1 2-.6.7.4 1 1.2.6 2l-6.4 12.2 13.2 1.1c.8.1 1.4.8 1.3 1.6 0 .6-.7 1.2-1.4 1.2z"/><path class="st0" d="M2.9 190.5h237.5v18.9H2.9zm93.2 21.8h51.4v28.1H96.1z"/><path class="st2" d="M170.4 163.3h11.4v22.6h-11.4z"/><path class="st5" d="M139.2 166.7h38.7v22.4h-38.7zm.2 8.1h38.5m-38.5 7.7h38.5m-11.1-15.8v22.4"/><path class="st0" d="M212.7 59.7h27.7V188h-27.7zm-209.8 0h28.5V188H2.9z"/></g></svg>