<svg id="Laag_1" xmlns="http://www.w3.org/2000/svg" width="86" height="48.6" viewBox="0 0 86 48.6"><style>.st0{fill:#fff}.st1{fill:#7a7a7a}.st2{opacity:.8;fill:#14ddc5;enable-background:new}.st3{fill:none}.st4{fill:#39b9be}.st5{fill:#7a7a7a;stroke:#7a7a7a;stroke-width:.5;stroke-miterlimit:10}</style><g id="Layer_2"><path class="st0" d="M4762-78.6l1.1 31.1c-14.8-2.8-24.2-2.5-41.5.3l-4.4-31.1c12.9-2.4 30.5-3.2 44.8-.3z"/><path class="st1" d="M4721.6-46.5c-.2 0-.3-.1-.5-.2s-.3-.3-.3-.5l-4.4-31.1c-.1-.4.2-.8.7-.9 7.4-1.3 16-2.1 24.2-2.1 7.7 0 14.7.6 20.9 1.8.4.1.6.4.6.8l1.1 31.1c0 .2-.1.5-.3.6-.2.2-.4.2-.7.2-7.1-1.3-12.9-1.9-18.7-1.9-6.2 0-12.7.6-22.5 2.2h-.1zm-3.4-31.3l4.2 29.6c9.4-1.5 15.8-2.1 22-2.1 5.6 0 11.3.5 18 1.8l-1.1-29.4c-5.9-1.1-12.6-1.7-20-1.7-7.8-.1-16 .6-23.1 1.8z"/><path class="st0" d="M4737.7 12.8L4721.9-14c14.3-4.6 22.5-9.3 36.4-20L4777-8.7c-10.2 8.1-25.4 17.2-39.3 21.5z"/><path class="st1" d="M4737.7 13.6c-.3 0-.5-.1-.7-.4l-15.8-26.8c-.1-.2-.1-.5-.1-.7.1-.2.3-.4.5-.5 13.7-4.4 21.8-8.9 36.2-19.9.2-.1.4-.2.6-.2s.4.1.5.3l18.7 25.3c.3.3.2.8-.1 1.1-9.3 7.4-24.6 17-39.5 21.6-.2.2-.2.2-.3.2zm-14.6-27.1l14.9 25.4c14.2-4.5 28.7-13.5 37.8-20.7l-17.7-24c-13.7 10.5-21.9 14.9-35 19.3zm17.4 90.6h-.2c-13.5-3.6-33.1-11.3-47.8-22.1-.3-.2-.4-.6-.3-1l14.2-33.5c.1-.2.3-.4.5-.5s.5 0 .7.1c13.7 9.8 23.5 14.4 43.9 20.2.2.1.4.2.5.4s.1.4.1.6l-10.8 35.1c-.1.5-.5.7-.8.7zm-46.6-23c14.2 10.3 32.9 17.7 46 21.3l10.3-33.6c-19.6-5.6-29.5-10.2-42.8-19.6l-13.5 31.9z"/><path class="st0" d="M4736.2-61.7l-16.9-27.5c12.7-6.8 19.8-13 31.6-26.4l19.4 25.5c-8.6 10.2-21.7 22-34.1 28.4z"/><path class="st1" d="M4736.2-60.9c-.3 0-.5-.1-.7-.4l-16.9-27.5c-.1-.2-.1-.4-.1-.6.1-.2.2-.4.4-.5 12.2-6.5 19.2-12.4 31.4-26.2.2-.2.4-.3.6-.3s.5.1.6.3l19.4 25.5c.2.3.2.7 0 1-7.9 9.3-21.1 21.7-34.4 28.6 0 .1-.2.1-.3.1zm-15.7-28l16 26.2c12.6-6.7 25.1-18.4 32.8-27.3l-18.4-24.3c-11.7 13.2-18.7 19.1-30.4 25.4z"/><path class="st1" d="M4760.2-78.3s-.1.1-.2.1c.3 0 .5.1.8.1-.1-.1-.2-.2-.3-.2h-.3zm-36.3-.7c-.8 0-1.6.3-2.6.4 0 .1.1.2.1.2 1-.1 2.1-.3 3.1-.4-.1-.1-.4-.2-.6-.2zm31.8-9.8c-.2 0-.4-.1-.6-.3-.3-.3-.2-.8.1-1.1l3.3-2.8c.3-.3.8-.2 1.1.1.3.3.2.8-.1 1.1l-3.3 2.8c-.1.1-.3.2-.5.2zm1.6 1.8c-.2 0-.4-.1-.6-.3-.3-.3-.2-.8.1-1.1l3.3-2.8c.3-.3.8-.2 1.1.1.3.3.2.8-.1 1.1l-3.3 2.8c-.1.2-.3.2-.5.2zm1.7 2.2c-.2 0-.5-.1-.6-.3-.3-.3-.2-.8.1-1.1l1.7-1.4c.3-.3.8-.2 1.1.1.3.3.2.8-.1 1.1l-1.7 1.4c-.1.1-.3.2-.5.2z"/><circle class="st2" cx="4750.4" cy="-89.2" r="3.1"/><circle class="st2" cx="4751.7" cy="-107.4" r="2.1"/><path class="st3" d="M4748.8-90.2c-1.2.1-2.1 1.1-2.3 2.3l2 .4.3-2.7z"/><path class="st3" d="M4750.4-89.9l-.3 3.4c0 .2-.1.4-.3.6-.2.1-.4.2-.6.2l-2.2-.4c.5.7 1.3 1.2 2.2 1.2 1.4 0 2.6-1.2 2.6-2.6-.1-1.1-.6-2-1.4-2.4z"/><path class="st1" d="M4750.5-91.2c-.4-.2-.9-.3-1.4-.3h-.2c-1.8.1-3.3 1.5-3.5 3.3 0 .2-.1.3-.1.5 0 .4.1.8.2 1.1.5 1.5 1.9 2.7 3.6 2.7 2.1 0 3.8-1.7 3.8-3.8 0-1.6-1-3-2.4-3.5zm-1.4 6.1c-.9 0-1.7-.5-2.2-1.2-.3-.4-.4-.9-.4-1.4v-.3c.1-1.2 1.1-2.1 2.3-2.3h.3c.5 0 .9.1 1.3.3.8.4 1.3 1.3 1.3 2.3 0 1.5-1.2 2.6-2.6 2.6z"/><path class="st1" d="M4741.6-87.2l3.8.7c-.1-.4-.2-.7-.2-1.1 0-.2 0-.3.1-.5l-3.7-.7c.1.2.1.5.1.8.1.2 0 .5-.1.8zm8.3-16.6l-1 12.4h.2c.5 0 .9.1 1.4.3l1-12.5c-.2 0-.4.1-.6.1-.4-.1-.7-.2-1-.3zm3.6-2.4c0-1.4-1.2-2.6-2.6-2.6s-2.6 1.2-2.6 2.6c0 1.1.7 2 1.6 2.4l.1-.9c-.5-.3-.8-.9-.8-1.5 0-1 .8-1.8 1.8-1.8s1.8.8 1.8 1.8c0 .8-.5 1.4-1.1 1.7l-.1.9c1-.4 1.9-1.4 1.9-2.6z"/><path class="st1" d="M4750.9-104.5c-.4 0-.7-.1-1-.3l-.1.9c.3.1.7.2 1 .2.2 0 .4 0 .6-.1l.1-.9c-.2.2-.4.2-.6.2z"/><path class="st4" d="M84.4 19.6L66 1.2c-1.6-1.6-4.3-1.6-5.9 0-.8.8-1.2 1.8-1.2 3s.4 2.2 1.2 3l11.3 11.3H47c-2.3 0-4.2 1.9-4.2 4.2s1.9 4.2 4.2 4.2h24.3L60.1 38.1c-1.6 1.6-1.6 4.3 0 5.9.8.8 1.9 1.2 3 1.2s2.1-.4 3-1.2l18.4-18.4c1-1.1 1.5-2 1.5-3.1-.1-.9-.7-1.9-1.6-2.9z"/><circle class="st4" cx="7.1" cy="23.1" r="4.3"/><circle class="st4" cx="20.5" cy="23.1" r="4.3"/><circle class="st4" cx="33.6" cy="23.1" r="4.3"/><path class="st5" d="M61 48.6c-1.4 0-2.6-.5-3.6-1.5s-1.5-2.2-1.5-3.6.5-2.6 1.5-3.6l9.7-9.7H45c-2.8 0-5.1-2.3-5.1-5.1S42.2 20 45 20h22.1l-9.7-9.7c-2-2-2-5.2 0-7.2 1-1 2.3-1.5 3.6-1.5 1.4 0 2.6.5 3.6 1.5L83 21.5c1.2 1.2 1.8 2.3 1.8 3.5 0 1.3-.5 2.5-1.8 3.7L64.6 47.1c-.9 1-2.2 1.5-3.6 1.5zm-2.4-7.5c-.7.7-1 1.5-1 2.5 0 .9.4 1.8 1 2.5.7.7 1.5 1 2.5 1 .9 0 1.8-.4 2.5-1L82 27.7c.9-.9 1.3-1.8 1.3-2.6s-.5-1.6-1.3-2.4L63.6 4.2c-.7-.7-1.5-1-2.5-1-.9 0-1.8.4-2.5 1-.7.7-1 1.5-1 2.5s.4 1.8 1 2.5L71 21.6H45.1c-1.9 0-3.5 1.6-3.5 3.5s1.6 3.5 3.5 3.5H71L58.6 41.1zM31.8 30.4c-2.8 0-5.1-2.3-5.1-5.1s2.3-5.1 5.1-5.1 5.1 2.3 5.1 5.1c-.1 2.8-2.3 5.1-5.1 5.1zm0-8.6c-1.9 0-3.5 1.6-3.5 3.5s1.6 3.5 3.5 3.5 3.5-1.6 3.5-3.5c0-2-1.6-3.5-3.5-3.5zm-13.3 8.6c-2.8 0-5.1-2.3-5.1-5.1s2.3-5.1 5.1-5.1 5.1 2.3 5.1 5.1-2.3 5.1-5.1 5.1zm0-8.6c-1.9 0-3.5 1.6-3.5 3.5s1.6 3.5 3.5 3.5 3.5-1.6 3.5-3.5c0-2-1.6-3.5-3.5-3.5zM5.1 30.4c-2.8 0-5.1-2.3-5.1-5.1s2.3-5.1 5.1-5.1c1.4 0 2.7.5 3.6 1.5 1 1 1.5 2.2 1.4 3.6.1 2.8-2.1 5.1-5 5.1zm0-8.6c-1.9 0-3.5 1.6-3.5 3.5s1.6 3.5 3.5 3.5 3.5-1.6 3.5-3.5-1.5-3.5-3.5-3.5z"/></g></svg>